# xmcd
# 
# Track frame offsets:
#     150
#     25898
#     62422
#     96506
#     113772
#     127432
#     165288
#     204648
#     236334
#     282639
#     300454
#     315752
# 
# Disc length: 4420
# 
# Revision: 35
# Processed by: cddbd v1.5.2PL0 Copyright (c) Steve Scherf et al.
# Submitted via: BonkEnc v1.0.8
# 
DISCID=9f11420c
DTITLE=Sisters Of Mercy - Greatest Hits Vol.1
DYEAR=1993
DGENRE=Rock 80er
TTITLE0=Under The Gun
TTITLE1=Temple Of Love (1992)
TTITLE2=Vision Thing
TTITLE3=Detonation Boulevard
TTITLE4=Doctor Jeep
TTITLE5=More
TTITLE6=Lucretia My Reflection
TTITLE7=Dominion - Mother Russia
TTITLE8=This Corrosion
TTITLE9=No Time To Cry
TTITLE10=Walk Away
TTITLE11=Body And Soul
EXTD=YEAR: 1993
EXTT0=
EXTT1=with Ofra Haza
EXTT2=
EXTT3=
EXTT4=
EXTT5=
EXTT6=
EXTT7=
EXTT8=
EXTT9=
EXTT10=
EXTT11=
PLAYORDER=
